:SAMPLES-PER-SECOND 30
:FRAME-RANGE 1-4244
:FULLY-SPECIFIED
:DEGREES
929
root  -30.1767 50.3482 -10.0472 174.386 46.6255 -162.481
RightUpLeg  -58.6574 -19.0317 1.30143
RightLeg  97.9048 0.749088 -2.42811
RightFoot  -6.46461 -0.687204 15.019
RightToes  -3.31784e-009 0 -3.6325e-017
Spine  36.3623 1.08293 6.56941
Spine1  2.72404 2.3938 3.59693
HEad  -5.52043 -24.006 9.34466
LeftShoulder1  1.45465 -2.43709 -17.871
LeftArm  -14.9882 -8.74359 -23.9232
LeftForeArm  26.865 -49.5312 -11.1062
LeftHand  -0.0249603 -3.39326 0.574411
RightShoulder  6.60063 19.6811 22.0948
RightArm  -27.1149 15.7256 0.790628
RightForeArm  5.55502 11.2432 9.77447
RightHand  -0.649455 1.83653 -10.5934
LeftUpLeg  -45.1232 1.42523 6.20203
LeftLeg  73.8685 1.22572 5.93595
LeftFoot  -5.58472 0.559512 -10.4425
LeftToes  1.0277e-010 -6.71454e-011 3.04227e-011
930
root  -29.3115 49.7895 -10.8351 177.729 45.2072 -154.747
RightUpLeg  -72.1053 -22.2753 0.194497
RightLeg  113.168 5.16909 -10.0414
RightFoot  -12.7197 0.00860826 7.89187
RightToes  -3.31784e-009 0 -3.6325e-017
Spine  39.1129 -1.21823 13.2196
Spine1  -1.34376 2.78919 4.52984
HEad  -2.31436 -26.7112 8.78935
LeftShoulder1  1.02806 -1.413 -13.9657
LeftArm  -26.7375 1.05676 -12.6206
LeftForeArm  21.2145 -53.218 -13.3433
LeftHand  0.0116643 -1.29198 -0.0811798
RightShoulder  3.85879 14.1636 15.0134
RightArm  -40.6366 12.901 -4.15725
RightForeArm  1.22136 10.9989 7.6289
RightHand  -0.673786 0.526743 -13.2924
LeftUpLeg  -36.0385 7.24611 12.878
LeftLeg  71.4648 1.22758 5.04838
LeftFoot  0.515123 1.29405 -12.4549
LeftToes  1.0277e-010 -6.71454e-011 3.04227e-011
931
root  -28.0533 48.8156 -11.6319 -177.278 44.0758 -149.31
RightUpLeg  -87.0445 -25.7448 -2.83223
RightLeg  119.135 10.96 -16.8192
RightFoot  -13.3143 -0.0757128 0.838091
RightToes  -3.31784e-009 0 -3.6325e-017
Spine  37.1724 -2.2246 16.9613
Spine1  -4.50865 3.1997 4.71209
HEad  -1.80167 -28.2736 9.16826
LeftShoulder1  0.610266 -0.49336 -7.70119
LeftArm  -33.6768 11.1781 -0.545185
LeftForeArm  10.048 -49.7466 -12.5234
LeftHand  0.0128359 0.159597 -0.307145
RightShoulder  1.98666 8.82574 8.69158
RightArm  -46.6877 11.9786 -8.97663
RightForeArm  3.78751 11.1589 6.05843
RightHand  -0.756755 0.520882 -14.9204
LeftUpLeg  -30.4497 15.8706 19.4491
LeftLeg  66.3104 1.23197 3.80305
LeftFoot  5.77813 2.2945 -15.4014
LeftToes  1.0277e-010 -6.71454e-011 3.04227e-011
932
root  -26.6969 47.9585 -12.3394 -170.467 43.9551 -145.703
RightUpLeg  -98.3264 -29.2313 -5.1424
RightLeg  111.298 7.96532 -17.0378
RightFoot  -15.2204 -0.0343831 2.02819
RightToes  -3.31784e-009 0 -3.6325e-017
Spine  32.2384 -0.747255 16.2157
Spine1  -8.96934 4.25517 7.00376
HEad  1.63074 -28.4256 8.59646
LeftShoulder1  0.233853 1.22876 -2.07138
LeftArm  -32.7601 19.8553 7.10031
LeftForeArm  10.9899 -50.5753 -12.8461
LeftHand  -0.0431189 4.71103 3.57925
RightShoulder  0.905611 4.92307 2.63181
RightArm  -39.9977 10.456 -10.2374
RightForeArm  6.22196 12.6511 7.02662
RightHand  -0.699955 -0.0538021 -15.2457
LeftUpLeg  -26.6958 26.4757 24.2732
LeftLeg  56.2714 2.14021 3.95773
LeftFoot  13.8878 3.75893 -17.074
LeftToes  1.0277e-010 -6.71454e-011 3.04227e-011
933
root  -25.8964 47.1104 -13.0214 -165.128 43.8353 -143.743
RightUpLeg  -102.385 -32.3217 -4.6436
RightLeg  91.9549 1.72669 -19.876
RightFoot  -17.8512 0.0308339 2.66767
RightToes  -3.31784e-009 0 -3.6325e-017
Spine  28.1403 0.238738 14.6663
Spine1  -12.4793 4.67096 9.1142
HEad  4.18947 -29.0619 8.44168
LeftShoulder1  0.0853146 2.40049 0.824221
LeftArm  -35.6126 30.4754 12.663
LeftForeArm  17.2665 -66.4715 -25.2979
LeftHand  -0.0655984 2.23469 2.01498
RightShoulder  0.741502 3.05692 3.2643
RightArm  -32.422 7.86141 -10.9945
RightForeArm  2.58849 18.7709 5.82246
RightHand  -0.722481 0.0142362 -15.5396
LeftUpLeg  -22.0469 31.8499 25.8028
LeftLeg  41.1813 3.29207 3.45392
LeftFoot  22.7314 6.45842 -21.339
LeftToes  1.0277e-010 -6.71454e-011 3.04227e-011
934
root  -25.4119 45.9988 -13.6631 -165.399 44.2363 -144.981
RightUpLeg  -98.0701 -33.984 -6.75499
RightLeg  70.0104 -6.44144 -19.7321
RightFoot  -17.7931 0.055771 3.12741
RightToes  -3.31784e-009 0 -3.6325e-017
Spine  26.3373 0.392306 12.0912
Spine1  -11.4228 3.91254 9.95954
HEad  4.35613 -29.4838 8.90485
LeftShoulder1  0.096806 2.49764 -1.32049
LeftArm  -31.2138 38.4087 10.4356
LeftForeArm  50.3791 -77.7342 -58.1476
LeftHand  -0.0303714 5.19013 3.07417
RightShoulder  0.734765 0.959361 9.11458
RightArm  -34.2785 7.09443 -10.4818
RightForeArm  -0.124237 23.1295 5.00383
RightHand  -0.741701 0.036855 -15.8838
LeftUpLeg  -13.5805 25.8435 25.1333
LeftLeg  24.0848 1.34727 0.976853
LeftFoot  26.4189 7.26084 -21.5167
LeftToes  1.0277e-010 -6.71454e-011 3.04227e-011
935
root  -24.9598 44.3605 -14.327 -165.699 43.4854 -144.33
RightUpLeg  -88.8004 -35.3457 -9.01754
RightLeg  47.1729 -12.5563 -14.3986
RightFoot  -15.3162 0.110797 6.1829
RightToes  -3.31784e-009 0 -3.6325e-017
Spine  25.4053 0.162957 12.1845
Spine1  -9.65961 3.29402 10.0002
HEad  5.80539 -29.5591 8.85035
LeftShoulder1  0.1947 2.14204 -6.59759
LeftArm  -25.0202 35.4355 -1.22652
LeftForeArm  27.9926 -71.1229 -32.2207
LeftHand  -0.0195086 2.60247 0.229463
RightShoulder  0.784561 -0.165005 16.9628
RightArm  -31.539 5.82355 -10.2771
RightForeArm  -4.16993 23.551 5.25426
RightHand  -0.677418 0.0183331 -14.5699
LeftUpLeg  -7.63607 12.7225 25.1113
LeftLeg  13.2669 3.0044 1.12958
LeftFoot  28.3212 5.41051 -15.4306
LeftToes  1.0277e-010 -6.71454e-011 3.04227e-011
936
root  -24.2916 42.7196 -14.9184 -166.099 41.5987 -141.662
RightUpLeg  -76.5603 -34.9325 -13.5713
RightLeg  33.6966 -16.644 -11.8342
RightFoot  -13.8139 0.0977275 8.86451
RightToes  -3.31784e-009 0 -3.6325e-017
Spine  26.4678 -1.01356 12.8946
Spine1  -8.7443 2.27521 9.53437
HEad  6.65352 -28.669 9.12825
LeftShoulder1  0.345482 1.58521 -10.7395
LeftArm  -16.4527 28.6573 -12.137
LeftForeArm  9.39846 -48.9867 -12.2219
LeftHand  0.0368139 -0.344692 -0.712984
RightShoulder  0.941591 -0.312026 23.4613
RightArm  -25.0106 5.6611 -7.83205
RightForeArm  -10.553 21.6871 5.73915
RightHand  -0.552217 -0.306918 -12.627
LeftUpLeg  -4.02491 9.46368 25.6395
LeftLeg  10.1501 -3.24764 0.382182
LeftFoot  27.0069 3.129 -9.47426
LeftToes  1.0277e-010 -6.71454e-011 3.04227e-011
